# xmcd
#
# Track frame offsets:
#	150
#	19265
#	39888
#	55590
#	77774
#	100737
#	122058
#	132266
#	160135
#	184958
#	200774
#	221622
#	226102
#
# Disc length: 3333 seconds
#
# Revision: 1
# Processed by: cddbd v1.5.2PL0 Copyright (c) Steve Scherf et al.
# Submitted via: audiograbber 1.83.01
#
DISCID=a80d030d
DTITLE=Reba Russell Band - 8
DYEAR=2010
DGENRE=Blues
TTITLE0=Almost A Memory
TTITLE1=Tender To Me
TTITLE2=Good Woman's Gone
TTITLE3=Soul Wreckin' Saturday
TTITLE4=You're Hell
TTITLE5=Rust
TTITLE6=Asshole
TTITLE7=You Know My Love
TTITLE8=Love Court
TTITLE9=Waters Only Water
TTITLE10=Say The Word
TTITLE11=Jimmy Dickinson Disclaimer
TTITLE12=Hitler Lives
EXTD=
EXTT0=
EXTT1=
EXTT2=
EXTT3=
EXTT4=
EXTT5=
EXTT6=
EXTT7=
EXTT8=
EXTT9=
EXTT10=
EXTT11=
EXTT12=
PLAYORDER=
